<?xml version="1.0" encoding="UTF-8"?>
<svg xmlns="http://www.w3.org/2000/svg" viewBox="0 0 595.28 201.55">
  <defs>
    <style>
      .cls-1 {
        fill: #000;
        stroke-width: 0px;
      }
    </style>
  </defs>
  <g id="Warstwa_1" data-name="Warstwa 1">
    <g>
      <g>
        <path class="cls-1" d="M105.68,117.92c0-18.43,14.61-33.04,34.08-33.04s34.15,14.61,34.15,33.04-14.61,33.04-34.15,33.04-34.08-14.68-34.08-33.04ZM164.07,117.93c0-13.57-10.58-23.85-24.34-23.85s-24.27,10.29-24.27,23.85,10.58,23.79,24.27,23.79,24.34-10.29,24.34-23.79Z"/>
        <path class="cls-1" d="M203.92,122.31l-27.79-36.26h11.77l20.96,27.08,20.92-27.08h11.77l-27.78,36.26v27.37h-9.84v-27.37Z"/>
        <path class="cls-1" d="M268.08,83.52l35.77,66.27h-10.59l-7.38-14h-35.85l-7.47,14h-10.81l36.33-66.28ZM281.49,127.59l-13.52-25.59-13.58,25.59h27.1Z"/>
        <path class="cls-1" d="M306.08,117.98c0-18.39,14.48-33.07,33.95-33.07,10.89,0,20.18,4.4,26.42,11.4l-7.54,5.95c-4.5-5.05-11.18-8.12-18.91-8.12-13.72,0-24.14,10.29-24.14,23.82s10.55,23.76,24.27,23.76c7.16,0,14.46-3.17,19.27-8.94v-15.14h9.85v18.32c-6.44,8.81-17.06,14.96-29.09,14.96-19.47,0-34.08-14.61-34.08-32.94Z"/>
        <path class="cls-1" d="M384.89,86.06h49.83v8.94h-40.04v16.29l29.1.04v8.7h-29.1v20.72h40.09v8.99h-49.89v-63.68Z"/>
        <path class="cls-1" d="M489.87,149.74l-30.45-28.1v28.1h-9.85v-63.68h29.88c13.9,0,23.22,6.81,23.22,19.18s-8.52,18.86-22.47,18.86h-5.31l29.09,25.64h-14.09ZM459.42,115.56h20.79c7.34,0,12.39-3.26,12.39-10.32s-5.05-10.32-12.39-10.32h-20.79v20.64Z"/>
      </g>
      <g>
        <path class="cls-1" d="M494.16,21.03c-1.13,2.54-5.87,7.34-9.34,9.61-5.07,3.2-12.61,5.4-20.62,5.94l-7.07.47,4.94,3.8c2.74,2.07,5.67,4.54,6.54,5.47,1.87,2,3.34,2.14,9.01.67,11.28-2.87,21.68-10.48,26.89-19.68,4.6-8.27,4.74-7.94-3-7.94-6.41,0-6.61.07-7.34,1.67Z"/>
        <path class="cls-1" d="M511.64,26.84c-.93,1.93-2.4,4.4-3.14,5.47l-1.4,1.93,3.54,3.27c3.94,3.6,12.34,7.94,18.42,9.47,7.61,1.93,24.02,3.07,28.09,2,1.4-.4,1.4-.53-1.2-6.21l-2.74-5.87-8.74-.4c-13.14-.53-20.28-3.07-27.16-9.61l-3.87-3.67-1.8,3.6Z"/>
        <path class="cls-1" d="M465.4,75.55c.27.89.49,1.85.67,2.85h12.55c-.28-2-.67-3.92-1.21-5.65-3.8-12.21-10.61-21.28-21.88-29.16l-4-2.8-2.34,5.14-2.27,5.14,5.34,5c6.34,6,11.28,13.21,13.14,19.48Z"/>
        <path class="cls-1" d="M536.73,57.46c-3.4,4.6-7.27,13.14-8.41,18.62-2.67,12.54.93,26.56,9.81,38.5,2.74,3.67,2.87,5.54.33,5.54-3.8.07-14.48,1.47-17.75,2.34-3.34.93-12.01,4.27-12.01,4.6,0,.13,2,2.2,4.54,4.67,4.27,4.34,4.54,4.54,6.47,3.8,5.2-1.8,11.21-2.74,18.48-2.74h7.87l4.67-7.01c2.6-3.87,4.87-7.47,5.07-8.01.27-.6-1-2.54-3.14-4.8-4.27-4.74-9.07-12.01-10.74-16.35-4.8-12.74-1.27-26.62,9.81-38.1l3.07-3.14h-5.94c-3.27,0-6.87-.2-8.01-.4-1.8-.4-2.27-.13-4.14,2.47Z"/>
      </g>
    </g>
  </g>
  <g id="Warstwa_3" data-name="Warstwa 3">
    <path class="cls-1" d="M38.39,86.11h18.33l14.49,29.71,14.49-29.71h18.33l-31.74,63.74h-2.16l-31.74-63.74ZM98.16,88.99h-9.22l-15.21,31.15,4.55,8.84,19.88-39.99Z"/>
  </g>
  <g id="Warstwa_2" data-name="Warstwa 2">
    <g>
      <path class="cls-1" d="M417.87,167.08h1.36v12.47h-1.36v-12.47ZM418.38,167.08h6.48v.2h-6.48v-.2ZM418.38,171.85h5.67v.2h-5.67v-.2ZM418.38,179.36h6.65v.2h-6.65v-.2Z"/>
      <path class="cls-1" d="M425.88,175.9h.2c0,2.07,1.52,3.56,3.85,3.58,1.86,0,3.59-1.04,3.59-3.28,0-3.98-6.87-1.81-6.87-6.14,0-1.83,1.5-3.09,3.79-3.09,2.14,0,3.3,1.26,3.3,2.5h-.2c0-1.09-1.01-2.27-3.09-2.3-1.84-.03-3.15.87-3.15,2.14,0,3.53,6.92,1.52,6.92,6.02,0,2.79-1.94,4.34-4.28,4.34-2.46,0-4.07-1.53-4.07-3.77ZM433.73,169.46c0,.47-.13.85-.28,1.08l-.16-.1c.15-.23.24-.54.24-.98h.2Z"/>
      <path class="cls-1" d="M434.29,167.08h8.95v.2h-8.95v-.2ZM438.09,167.08h1.36v12.47h-1.36v-12.47Z"/>
      <path class="cls-1" d="M444.72,167.08h4.08c4,0,6.66,2.5,6.66,6.19s-2.89,6.29-6.73,6.29h-4.02v-12.47ZM448.71,179.36c3.49,0,5.34-2.69,5.34-6.09s-1.67-5.99-5.21-5.99h-2.76v12.08h2.63Z"/>
    </g>
    <g>
      <path class="cls-1" d="M70.41,167.04h2.66c1.98,0,3.87.8,3.89,3,.02,2.43-1.75,3.51-4.47,3.51h-1.06l-.03,5.96h-.98v-12.47ZM72.58,173.36c2.11,0,3.49-1.16,3.48-3.31-.02-1.94-1.19-2.81-2.86-2.81h-1.81l.03,6.12h1.16Z"/>
      <path class="cls-1" d="M78.29,175.12c0-2.55,1.93-4.51,4.47-4.51s4.47,1.96,4.47,4.51-1.91,4.51-4.47,4.51-4.47-1.94-4.47-4.51ZM86.26,175.12c0-2.35-1.19-4.31-3.49-4.31s-3.49,1.96-3.49,4.31,1.19,4.31,3.49,4.31,3.49-1.96,3.49-4.31Z"/>
      <path class="cls-1" d="M89.06,167.04l.95-.28v12.75h-.95v-12.47Z"/>
      <path class="cls-1" d="M91.74,176.59h.2c0,1.62,1.06,2.84,2.81,2.84s2.6-1.06,2.6-2.17c0-2.82-5.26-1.16-5.26-4.38,0-1.19.91-2.29,2.6-2.29s2.4.8,2.4,1.86h-.2c0-.95-.65-1.67-2.2-1.67-1.42,0-2.16.72-2.16,1.62,0,2.53,5.22,1.08,5.22,4.23,0,1.42-.91,2.99-2.99,2.99-1.88,0-3.02-1.27-3.02-3.04ZM97.08,172.46c0,.34-.08.57-.2.75l-.18-.1c.08-.13.18-.34.18-.65h.2Z"/>
      <path class="cls-1" d="M99.56,167.04l.95-.28v12.75h-.95v-12.47ZM99.77,175.01l6.25-4.28h.33l-6.73,4.57.15-.29ZM103.95,175.18c-.44-1.03-1.04-1.27-1.65-1.27-.87,0-1.83.82-2.4,1.21l-.07-.08c.9-.78,2.07-1.49,3.07-1.49.67,0,1.49.28,1.99,1.45l1.96,4.51h-1.04l-1.86-4.33Z"/>
      <path class="cls-1" d="M107.27,177.8c0-1.32,1.26-2.83,5.83-2.97v.2c-3.79,0-4.82,1.31-4.82,2.53,0,1,.67,1.73,1.78,1.73,1.53,0,3.04-1.42,3.04-3.46h.2c0,1.7-1.14,3.8-3.84,3.8-1.22,0-2.19-.67-2.19-1.83ZM113.1,177.03v-3.28c0-1.5-.64-2.83-2.55-2.86-1.58-.03-2.68,1-2.68,2.38,0,.69.29,1.29.62,1.6l-.15.13c-.38-.34-.67-.96-.67-1.73,0-1.45,1.16-2.63,3.09-2.65,1.84,0,3.28,1.01,3.28,3.31v2.86c0,1.65.33,2.48,1.19,2.68l-.02.15c-1.18-.16-2.12-.96-2.12-2.6Z"/>
      <path class="cls-1" d="M119.45,173.27c0-3.62,2.63-6.35,6.48-6.35,2.74,0,4.2,1.4,4.2,3.17h-.2c0-1.44-1.19-2.97-3.95-2.97-3.64,0-5.47,2.76-5.47,6.12s1.88,6.17,5.34,6.17c2.16,0,4.28-1.22,4.28-3.95s-1.8-3.07-3.59-3.1v-.15c1.8.02,4.44.36,4.44,3.25,0,2.55-2.33,4.15-5.13,4.15-3.59,0-6.4-2.71-6.4-6.33ZM125.07,172.16h6.82v.2h-6.82v-.2ZM130.13,170.09c0,.47-.13.85-.28,1.08l-.16-.1c.15-.23.25-.54.25-.98h.2Z"/>
      <path class="cls-1" d="M132.88,177.8c0-1.32,1.26-2.83,5.83-2.97v.2c-3.79,0-4.82,1.31-4.82,2.53,0,1,.67,1.73,1.78,1.73,1.53,0,3.04-1.42,3.04-3.46h.2c0,1.7-1.14,3.8-3.84,3.8-1.22,0-2.19-.67-2.19-1.83ZM138.71,177.03v-3.28c0-1.5-.64-2.83-2.55-2.86-1.58-.03-2.68,1-2.68,2.38,0,.69.29,1.29.62,1.6l-.15.13c-.38-.34-.67-.96-.67-1.73,0-1.45,1.16-2.63,3.09-2.65,1.84,0,3.28,1.01,3.28,3.31v2.86c0,1.65.33,2.48,1.19,2.68l-.02.15c-1.18-.16-2.12-.96-2.12-2.6Z"/>
      <path class="cls-1" d="M142.09,167.04l.95-.28v12.75h-.95v-12.47Z"/>
      <path class="cls-1" d="M144.93,177.8c0-1.32,1.26-2.83,5.83-2.97v.2c-3.79,0-4.82,1.31-4.82,2.53,0,1,.67,1.73,1.78,1.73,1.53,0,3.04-1.42,3.04-3.46h.2c0,1.7-1.14,3.8-3.84,3.8-1.22,0-2.19-.67-2.19-1.83ZM150.76,177.03v-3.28c0-1.5-.64-2.83-2.55-2.86-1.58-.03-2.68,1-2.68,2.38,0,.69.29,1.29.62,1.6l-.15.13c-.38-.34-.67-.96-.67-1.73,0-1.45,1.16-2.63,3.09-2.65,1.84,0,3.28,1.01,3.28,3.31v2.86c0,1.65.33,2.48,1.19,2.68l-.02.15c-1.18-.16-2.12-.96-2.12-2.6Z"/>
      <path class="cls-1" d="M154.14,170.92l.95-.28v8.87h-.95v-8.59ZM160.53,174.4c0-2.2-.41-3.51-2.48-3.51-1.24,0-2.96.95-2.96,2.92l-.2.02c0-2.22,1.94-3.22,3.43-3.22,2.2,0,3.15,1.19,3.15,3.56v5.34h-.95v-5.11Z"/>
      <path class="cls-1" d="M163.79,176.54v-5.42h-1.18v-.2c.85,0,1.83-.62,1.93-2.24h.2v2.24h2.48v.2h-2.48v5.19c0,2.14.51,2.97,1.7,3.17l-.02.15c-1.5-.16-2.63-1.04-2.63-3.09Z"/>
      <path class="cls-1" d="M167.27,175.25c0-2.76,2.07-4.64,4.6-4.64,2.22,0,3.51,1.35,2.97,3h-6.69v-.2h4.44c.75,0,1.49-.13,1.49-.93,0-.98-.8-1.68-2.24-1.68-2.09,0-3.53,1.4-3.53,4.13s1.22,4.46,3.56,4.46c1.45,0,2.79-.9,3.17-2.64l.18.03c-.39,1.81-1.78,2.89-3.74,2.89-2.27,0-4.21-1.67-4.21-4.42Z"/>
      <path class="cls-1" d="M176.89,170.92l.95-.28v8.87h-.95v-8.59ZM177.61,174.19c.16-2.29,1.58-3.58,3.17-3.58.34,0,.78.06,1.06.15l-.06.2c-.26-.08-.69-.15-1.03-.15-1.52,0-2.87,1.4-2.92,3.46l-.21-.08Z"/>
      <path class="cls-1" d="M183.33,168.67c0-.39.31-.7.7-.7s.7.31.7.7-.31.7-.7.7-.7-.31-.7-.7ZM183.56,171.01l.95-.28v8.78h-.95v-8.51Z"/>
      <path class="cls-1" d="M186.69,177.8c0-1.32,1.26-2.83,5.83-2.97v.2c-3.79,0-4.82,1.31-4.82,2.53,0,1,.67,1.73,1.78,1.73,1.53,0,3.04-1.42,3.04-3.46h.2c0,1.7-1.14,3.8-3.84,3.8-1.22,0-2.19-.67-2.19-1.83ZM192.52,177.03v-3.28c0-1.5-.64-2.83-2.55-2.86-1.58-.03-2.68,1-2.68,2.38,0,.69.29,1.29.62,1.6l-.15.13c-.38-.34-.67-.96-.67-1.73,0-1.45,1.16-2.63,3.09-2.65,1.84,0,3.28,1.01,3.28,3.31v2.86c0,1.65.33,2.48,1.19,2.68l-.02.15c-1.18-.16-2.12-.96-2.12-2.6Z"/>
      <path class="cls-1" d="M199.06,175.85h.2c0,2.07,1.5,3.54,3.84,3.58,1.76,0,3.69-1,3.69-3.43,0-4.02-6.89-1.86-6.89-6.12,0-1.81,1.49-2.96,3.69-2.96s3.31,1.29,3.31,2.5h-.2c0-1.06-1.03-2.25-3.1-2.3-1.83-.03-3.22.87-3.22,2.2,0,3.69,6.89,1.58,6.89,6.07,0,2.89-2.06,4.23-4.15,4.23-2.46,0-4.07-1.53-4.07-3.77ZM206.89,169.42c0,.47-.13.85-.28,1.08l-.16-.1c.15-.23.25-.54.25-.98h.2Z"/>
      <path class="cls-1" d="M209.23,167.04l.95-.28v12.75h-.95v-12.47ZM209.44,175.01l6.25-4.28h.33l-6.73,4.57.15-.29ZM213.62,175.18c-.44-1.03-1.04-1.27-1.65-1.27-.87,0-1.83.82-2.4,1.21l-.07-.08c.9-.78,2.07-1.49,3.07-1.49.67,0,1.49.28,1.99,1.45l1.96,4.51h-1.04l-1.86-4.33Z"/>
      <path class="cls-1" d="M216.81,175.12c0-2.55,1.93-4.51,4.47-4.51s4.47,1.96,4.47,4.51-1.91,4.51-4.47,4.51-4.47-1.94-4.47-4.51ZM224.78,175.12c0-2.35-1.19-4.31-3.49-4.31s-3.49,1.96-3.49,4.31,1.19,4.31,3.49,4.31,3.49-1.96,3.49-4.31ZM222.13,166.76h1.06l-2.3,3.13h-.1l1.34-3.13Z"/>
      <path class="cls-1" d="M227.57,170.92l.95-.28v8.87h-.95v-8.59ZM228.29,174.19c.16-2.29,1.58-3.58,3.17-3.58.34,0,.78.06,1.06.15l-.06.2c-.26-.08-.69-.15-1.03-.15-1.52,0-2.87,1.4-2.92,3.46l-.21-.08Z"/>
      <path class="cls-1" d="M233.19,179.32l6.07-8.51,1.09.11-6.16,8.52-1.01-.13ZM233.19,179.32h7.12v.2h-7.12v-.2ZM233.56,170.73h6.79v.2h-6.79v-.2Z"/>
      <path class="cls-1" d="M241.19,177.8c0-1.32,1.26-2.83,5.83-2.97v.2c-3.79,0-4.82,1.31-4.82,2.53,0,1,.67,1.73,1.78,1.73,1.53,0,3.04-1.42,3.04-3.46h.2c0,1.7-1.14,3.8-3.84,3.8-1.22,0-2.19-.67-2.19-1.83ZM247.02,177.03v-3.28c0-1.5-.64-2.83-2.55-2.86-1.58-.03-2.68,1-2.68,2.38,0,.69.29,1.29.62,1.6l-.15.13c-.38-.34-.67-.96-.67-1.73,0-1.45,1.16-2.63,3.09-2.65,1.84,0,3.28,1.01,3.28,3.31v2.86c0,1.65.33,2.48,1.19,2.68l-.02.15c-1.18-.16-2.12-.96-2.12-2.6Z"/>
      <path class="cls-1" d="M250.4,170.92l.95-.28v8.87h-.95v-8.59ZM256.79,174.4c0-2.2-.41-3.51-2.48-3.51-1.24,0-2.96.95-2.96,2.92l-.2.02c0-2.22,1.94-3.22,3.43-3.22,2.2,0,3.15,1.19,3.15,3.56v5.34h-.95v-5.11Z"/>
      <path class="cls-1" d="M259.53,177.8c0-1.32,1.26-2.83,5.83-2.97v.2c-3.79,0-4.82,1.31-4.82,2.53,0,1,.67,1.73,1.78,1.73,1.53,0,3.04-1.42,3.04-3.46h.2c0,1.7-1.14,3.8-3.84,3.8-1.22,0-2.19-.67-2.19-1.83ZM265.36,177.03v-3.28c0-1.5-.64-2.83-2.55-2.86-1.58-.03-2.68,1-2.68,2.38,0,.69.29,1.29.62,1.6l-.15.13c-.38-.34-.67-.96-.67-1.73,0-1.45,1.16-2.63,3.09-2.65,1.84,0,3.28,1.01,3.28,3.31v2.86c0,1.65.33,2.48,1.19,2.68l-.02.15c-1.18-.16-2.12-.96-2.12-2.6Z"/>
    </g>
    <g>
      <path class="cls-1" d="M465.83,179.24l2.86-2.58c2.81-2.55,4.13-4.64,4.1-6.79-.02-1.42-.69-2.69-2.87-2.69s-3.33,1.52-3.33,2.94c0,.72.25,1.34.62,1.65l-.13.13c-.38-.34-.69-.98-.69-1.78,0-1.49,1.11-3.23,4-3.23,2.32,0,3.85,1.22,3.84,3-.02,2.17-1.44,3.89-7.49,8.75l.23-.29h7.69l-.25,1.13h-8.55l-.02-.23Z"/>
      <path class="cls-1" d="M475.9,173.48c0-4,2.01-6.6,4.51-6.6,2.32,0,4.2,2.48,4.2,6.3s-1.99,6.38-4.42,6.38-4.28-2.53-4.28-6.09ZM483.27,173.43c0-3.82-1.18-6.35-2.92-6.35s-3.07,2.46-3.07,6.19c0,3.53,1.19,6.11,2.94,6.11s3.05-2.51,3.05-5.94Z"/>
      <path class="cls-1" d="M485.82,173.48c0-4,2.01-6.6,4.51-6.6,2.32,0,4.2,2.48,4.2,6.3s-1.99,6.38-4.42,6.38-4.28-2.53-4.28-6.09ZM493.18,173.43c0-3.82-1.18-6.35-2.92-6.35s-3.07,2.46-3.07,6.19c0,3.53,1.19,6.11,2.94,6.11s3.05-2.51,3.05-5.94Z"/>
      <path class="cls-1" d="M501.12,168.17l.11-.03-5.5,7.9v-.11l8.42-.02v.2h-8.59v-.16l6.22-8.95h.65v12.47h-1.32v-11.3Z"/>
    </g>
  </g>
</svg>